<?xml version="1.0" standalone="no"?><!DOCTYPE svg PUBLIC "-//W3C//DTD SVG 1.1//EN" "http://www.w3.org/Graphics/SVG/1.1/DTD/svg11.dtd"><svg t="1684579003445" class="icon" viewBox="0 0 1024 1024" version="1.1" xmlns="http://www.w3.org/2000/svg" p-id="28132" xmlns:xlink="http://www.w3.org/1999/xlink" width="200" height="200"><path d="M630.17014 531.666883c60.045441 23.298589 182.72426 41.024264 209.928801 96.092353 38.639965 77.848887 51.856961 312.203957 60.708542 390.494911l-777.617013-0.004093c8.848511-78.33291 22.45948-312.653188 61.091258-390.490818 26.481065-53.581229 148.795587-72.369093 209.945174-96.08826 12.28272 44.048127 39.072822 131.148707 77.711764 190.596538l17.546596-103.645361-10.154247-24.463109 32.491953-27.303802 32.491954 27.303802-10.159364 24.454923 17.54455 103.597265c38.122173-59.867386 67.575936-150.658001 78.469009-190.540256v-0.004093h0.001023z m71.469609-267.316721c9.733669-2.657521 19.612647-2.375089 22.556693 8.227365 3.763713 13.467706 2.897997 25.858896-1.172706 37.423256-3.771899 10.691482-19.188999 20.420034-27.35292 29.563257-3.787249 4.229316-12.26737 5.975073-17.482128 5.125731-9.423608 24.854011-21.036063 49.365216-35.264085 71.798089-32.691498 51.520294-77.247184 89.040764-130.934836 89.040765-53.690722 0-98.243339-37.51126-130.931766-89.040765-14.251557-22.45948-25.818987-46.901099-35.247712-71.798089-5.213735 0.845249-13.69181-0.893345-17.482128-5.125731-8.164944-9.146293-23.583068-18.871775-27.35292-29.563257-4.070704-11.56743-4.931303-23.951457-1.17373-37.423256 2.360763-8.512867 9.192341-10.363001 16.836423-9.398025-7.555055-32.819411-14.224951-73.336115-7.109917-106.254787 10.261694-47.523268 25.159979-60.331966 52.146556-70.678594C388.642731 37.564472 438.507319 5.745853 506.740217 5.745853c68.234944 0 133.076612 20.954199 173.547268 101.674477a96.380925 96.380925 0 0 0 8.498541 5.773482c35.795179 21.50269 21.219235 114.910917 12.845537 151.15942l0.008186-0.00307z m-67.174801-130.7005c-47.493592 42.281904-122.554999 51.238886-184.94176 27.284359 22.076764 10.818372 50.179766 17.940568 80.55655 19.200256 12.166063 0.497326 23.978063 0.00307 35.16994-1.356902 11.386305-1.39067 21.946804-3.672639 31.432834-6.712875 6.156198-1.977024 12.761626 1.4183 14.737626 7.577567 1.97907 6.161314-1.413183 12.765719-7.576544 14.739673-11.024056 3.526306-23.082672 6.163361-35.851461 7.716737-12.157877 1.475605-25.190678 2.011816-38.825183 1.452069-38.520238-1.602494-74.019683-11.823256-100.242874-27.044906-17.396171-10.100012-30.948811-22.536227-39.052357-36.387672-17.527154 17.40845-26.570092 38.503865-32.219754 58.438853-0.386809 4.719479-0.595563 9.486029-0.595563 14.305792 0 57.627373 20.894848 138.74981 51.818075 187.154144 27.299708 42.741368 62.780733 73.86414 103.114267 73.86414 40.330463 0 75.810465-31.126866 103.118359-73.86414 42.764904-66.944558 72.048799-197.471096 19.358868-266.364025v-0.00307h-0.001023z m163.187336 515.055586v0.004094c-4.187361-8.462725-16.106807-16.26542-32.166542-23.498134-2.256386 21.707351-7.942887 43.767742-16.005501 65.521142 35.008258 19.910429 53.021481 60.003486 39.464748 106.081848-18.407195 62.570956-19.598321 179.552017-99.118263 150.429804-18.268026-6.689339-8.102522-34.452604 10.174713-27.755078 17.968198 6.581892 27.83285-4.936419 34.784155-23.898246 9.895351-27.010113 16.177415-74.319511 25.800567-107.039661 22.518831-76.525754-78.861958-113.824168-111.15232-40.768437-13.610969 30.803502-39.464748 71.050054-49.483919 98.415253-6.945165 18.952616-6.853068 34.12924 11.122293 40.71011 18.270072 6.689339 8.104569 34.448511-10.172667 27.759171-79.425798-29.103793-5.051029-118.797426 21.475061-178.83468 19.574785-44.289627 59.73538-63.065212 99.334181-55.378151 8.172107-21.965224 13.810513-44.450286 15.039501-66.382764-19.459152-6.67706-41.112268-12.835304-61.304105-18.57911-4.774737-1.350761-9.471703-2.696406-14.106248-4.027725-6.689339 20.149882-14.907495 42.949099-24.349522 65.873158-30.783036 74.765671-61.750266 111.028501-108.100828 166.786298-4.325507 5.202478-10.142991 7.932654-16.910101 7.94084s-12.592781-2.717896-16.933637-7.914235c-52.498573-62.949578-83.486269-99.480513-116.158324-186.275124-6.037495-16.049502-11.417004-31.756198-16.088388-46.28814-4.652964 1.360995-9.376536 2.728129-14.177879 4.113682-18.281329 5.300716-37.696478 10.912515-55.572579 16.894752 0.911764 67.33853 22.467666 138.88591 52.753376 190.825758 23.586137-5.544262 46.823328 10.083639 50.581924 33.940952 3.568262 22.652884-11.903074 43.903841-34.545725 47.46801-36.237247 5.712084-61.258057-35.026678-40.502378-64.759803-32.127657-54.48276-54.559508-127.023768-57.526066-196.63608-18.625159 7.848743-32.61475 16.257233-37.072263 25.27459-30.938578 62.335596-44.931239 250.191726-51.44764 322.080889l673.414974 0.002046c-6.494911-71.862557-20.129416-259.777016-51.050598-322.087029z" fill="#4DA476" p-id="28133"></path></svg>