<?xml version="1.0" standalone="no"?><!DOCTYPE svg PUBLIC "-//W3C//DTD SVG 1.1//EN" "http://www.w3.org/Graphics/SVG/1.1/DTD/svg11.dtd"><svg t="1684547617077" class="icon" viewBox="0 0 1024 1024" version="1.1" xmlns="http://www.w3.org/2000/svg" p-id="5815" xmlns:xlink="http://www.w3.org/1999/xlink" width="200" height="200"><path d="M868.864 366.08h-808.96v61.44h808.96v-61.44zM261.632 281.088c-16.896 0-30.72-13.824-30.72-30.72V104.448c0-16.896 13.824-30.72 30.72-30.72s30.72 13.824 30.72 30.72v145.92c0 16.896-13.824 30.72-30.72 30.72zM161.792 542.72c0-16.896 13.824-30.72 30.72-30.72h145.92c16.896 0 30.72 13.824 30.72 30.72s-13.824 30.72-30.72 30.72H192.512c-16.896 0-30.72-13.824-30.72-30.72zM747.52 603.136c16.896 0 30.72 13.824 30.72 30.72V711.68c0 16.896-13.824 30.72-30.72 30.72s-30.72-13.824-30.72-30.72v-78.336c0-16.896 13.824-30.208 30.72-30.208z" fill="#62A86F" p-id="5816"></path><path d="M858.624 715.264c0 16.896-13.824 30.72-30.72 30.72h-78.336c-16.896 0-30.72-13.824-30.72-30.72s13.824-30.72 30.72-30.72h78.336c16.896 0 30.72 13.824 30.72 30.72zM161.792 706.56c0-16.896 13.824-30.72 30.72-30.72h145.92c16.896 0 30.72 13.824 30.72 30.72s-13.824 30.72-30.72 30.72H192.512c-16.896 0-30.72-13.824-30.72-30.72zM666.112 281.088c-16.896 0-30.72-13.824-30.72-30.72V104.448c0-16.896 13.824-30.72 30.72-30.72s30.72 13.824 30.72 30.72v145.92c0 16.896-13.824 30.72-30.72 30.72z" fill="#62A86F" p-id="5817"></path><path d="M458.752 873.472m-30.72 0a30.72 30.72 0 1 0 61.44 0 30.72 30.72 0 1 0-61.44 0Z" fill="#62A86F" p-id="5818"></path><path d="M752.64 541.696c93.184 0 168.96 75.776 168.96 168.96s-75.776 168.96-168.96 168.96-168.96-75.776-168.96-168.96 75.776-168.96 168.96-168.96m0-61.44c-127.488 0-230.4 102.912-230.4 230.4s102.912 230.4 230.4 230.4 230.4-102.912 230.4-230.4-102.912-230.4-230.4-230.4z" fill="#62A86F" p-id="5819"></path><path d="M460.8 842.752H175.104c-37.376 0-68.608-30.72-68.608-68.608V248.32c0-37.376 30.72-68.608 68.608-68.608h578.048c37.376 0 68.608 30.72 68.608 68.608v177.664h60.416V250.88c0-72.704-58.88-131.584-131.584-131.584H178.176C105.472 119.296 46.08 178.176 46.08 250.88v520.704c0 72.704 58.88 131.584 131.584 131.584H460.8v-60.416z" fill="#62A86F" p-id="5820"></path></svg>