<?xml version="1.0" standalone="no"?><!DOCTYPE svg PUBLIC "-//W3C//DTD SVG 1.1//EN" "http://www.w3.org/Graphics/SVG/1.1/DTD/svg11.dtd"><svg t="1684578993033" class="icon" viewBox="0 0 1024 1024" version="1.1" xmlns="http://www.w3.org/2000/svg" p-id="27991" xmlns:xlink="http://www.w3.org/1999/xlink" width="200" height="200"><path d="M751.509454 636.97409a329.794556 329.794556 0 0 1-3.348252 16.543758c37.480561 15.277931 60.653284 52.880265 53.153488 100.562146-10.188016 64.74957 3.862973 181.484015-79.178159 162.825087-19.066203-4.293784-12.556965-33.274781 6.522541-28.989184 18.770468 4.21192 27.10835-8.549706 31.556653-28.346548 6.335276-28.202262 6.436583-76.170668 11.766975-110.030779 12.459751-79.186345-93.433809-103.138826-116.07953-26.135188-9.549474 32.459208-30.075932 75.949634-36.490003 104.518239-4.449326 19.785586-2.381229 34.900811 16.387193 39.119895 19.074389 4.277411 12.556965 33.274781-6.521518 28.984067-82.936755-18.643578-20.510085-117.726026-1.900275-181.007156 13.732742-46.683135 51.30847-70.626406 91.768893-68.130567 1.927905-8.364488 3.510957-16.749442 4.66422-25.101651-20.527481-10.639293-42.742391-20.937826-64.53263-30.513906-1.205452 22.164768-7.477283 43.334884-16.311468 63.038606-8.023728 17.89452-18.220954 34.582564-28.377247 49.545317-25.397386 37.389487-55.352568 71.941352-84.355055 106.673318l-7.898885 162.549818h315.84999c-1.143031-13.175041-2.282992-27.079698-3.477187-41.558428-8.484215-103.007843-19.464268-236.315721-33.834529-256.34997-8.401327-11.723996-26.536323-24.855035-49.365215-38.196874z m-25.343151-102.624104c1.609657-104.340185 2.001583-262.243179-15.318863-353.925091C690.338378 71.89735 634.438342 3.013631 512.975209 3.221361 391.523332 3.011584 335.272303 71.899396 314.226006 180.424895c-17.361378 89.516601-17.840285 248.405037-16.776048 354.112356 24.741448-11.671807 49.016269-22.034808 69.745341-30.681729 5.508446-2.303458 71.710085-27.431714 96.560003-36.973002-41.849047-21.15886-83.692977-110.858632-89.246448-157.177471-5.096055 6.682176-8.932422 34.496606-10.249414 50.817284-11.156062-32.915601-8.592685-59.587001-4.696966-79.731767 11.300348-58.397921 40.191294-112.297398 84.815541-146.293608 50.570668 76.013079 118.457689 93.038814 184.081161 133.531982-3.839437-9.387792-6.018052-14.257697-6.304577-14.609713-54.267866-66.576168-88.49432-84.234305-110.397122-110.925147 81.099924 30.675589 128.886181 71.098149 148.248119 147.301563 7.779158 30.627493 9.113547 67.779574 4.495375 110.728672-2.916417-36.413255-10.045777-74.210017-16.808794-87.40757-6.590079 54.981109-48.547596 137.395979-82.555062 154.06458 35.651917 14.253604 88.860663 35.501491 93.895319 37.609497 20.11816 8.410537 43.403446 18.380589 67.132846 29.565304v-0.00614h0.001023z m-124.565791 6.039541l24.455946-14.862469c75.254811 31.158588 181.469689 77.110061 213.573809 121.880641 29.428181 41.021194 40.228133 278.10337 50.998409 373.37094-252.423552-0.004093-504.840964 0-757.258376 0 10.76823-95.268593 21.567158-332.345653 50.993293-373.37094 32.106168-44.775697 138.316952-90.722053 213.574833-121.880641l24.462086 14.862469c-7.359603 15.138762-11.024056 30.848527-10.216669 47.69416 1.524723 31.91481 18.974106 63.262709 36.522749 89.115466 7.580637 11.164248 15.669856 22.09109 24.050717 32.851133l-18.977175 52.471967c-15.104993-18.465523-30.083095-37.600288-44.391958-58.67933-10.157317-14.976056-20.351473-31.663077-28.368038-49.549411-8.827022-19.710885-15.090666-40.862581-16.302258-63.023256-17.029828 7.483423-34.318551 15.410961-50.858217 23.596371-12.037127 69.347276-1.934045 148.125323 21.040157 207.065595 24.280961-1.828645 44.902586 17.320446 44.902586 41.599361 0 23.033553-18.674277 41.721134-41.71704 41.721133-36.860439-0.005117-55.332102-44.357165-30.080026-70.628452-23.211608-58.705936-34.149706-133.610777-26.52302-202.787161-27.016253 15.080433-48.882216 30.107655-58.360059 43.331814-14.37026 20.030155-25.351337 153.346221-33.833505 256.3469-1.196243 14.477707-2.336203 28.386457-3.477188 41.564568l301.865516-0.00307-6.652501-177.754071c31.162681-37.481585 67.017212-78.030012 94.247336-118.111812 17.555806-25.856849 35.008258-57.193492 36.538098-89.112395 0.815573-16.857913-2.852972-32.559492-10.211552-47.705417v-0.004093z" fill="#2875A4" p-id="27992"></path><path d="M511.986697 708.272806c22.308031-27.382596 62.895343-77.505057 67.645521-116.749794-43.522149 14.374353-91.732054 14.378447-135.262389 0 4.745061 39.224271 45.276092 89.325243 67.615845 116.753888v-0.004094z" fill="#2875A4" p-id="27993"></path></svg>